# xmcd
#
# Track frame offsets:
#	150
#	17903
#	31840
#	46015
#	65925
#	76157
#	93495
#	109935
#	126232
#	144864
#	163004
#	175128
#	191766
#	209244
#	226543
#	238989
#	256216
#	272056
#	290158
#	303201
#
# Disc length: 4205
#
# Revision: 3
# Processed by: cddbd v1.5.1PL0 Copyright (c) Steve Scherf et al.
# Submitted via: ExactAudioCopy v0.90b4
# Normalized: r2:DSETVAR1
#
DISCID=20106b14
DTITLE=Various Artist - Italia Ti Amo [CD1]
DYEAR=2002
DGENRE=Easy Listening
TTITLE0=Toto Cotugno - L'Italiano
TTITLE1=Gianni Morandi - Non Son Degno Di Te
TTITLE2=Bobby Solo - Una Lacrima Sul Viso
TTITLE3=Zucchero - Senza Una Donna
TTITLE4=Domenico Modugno - Piove
TTITLE5=Sergio Endrigo - L'Arca Di Noe
TTITLE6=Nicola Di Bari - Il Cuore É Un Zingaro
TTITLE7=Raffaela Carra - Domani
TTITLE8=Spagna - Gente Come Noi
TTITLE9=I Santo California - Tornero
TTITLE10=Jimmy Fontana - Il Mondo
TTITLE11=Rita Pavone - Cuore
TTITLE12=Patty Bravo - La Bambola
TTITLE13=Fausto Leali - Io Amo
TTITLE14=Adriano Caletano - Buenasera Signorina
TTITLE15=Marcella Bella - Nel Mio Cielo Puro
TTITLE16=Riccardo Fogli - Pensiero
TTITLE17=Ana Oxa - É Tutto Un Attimo
TTITLE18=Orietta Berti - Come Prima
TTITLE19=Tony Renis - Quando Quando Quando
EXTD=
EXTT0=
EXTT1=
EXTT2=
EXTT3=
EXTT4=
EXTT5=
EXTT6=
EXTT7=
EXTT8=
EXTT9=
EXTT10=
EXTT11=
EXTT12=
EXTT13=
EXTT14=
EXTT15=
EXTT16=
EXTT17=
EXTT18=
EXTT19=
PLAYORDER=
